<svg width="105" height="90" viewBox="0 0 105 90" fill="none" xmlns="http://www.w3.org/2000/svg">
<g clip-path="url(#clip0_150_1138)">
<path d="M49.4238 0.246098C42.5947 1.49414 37.6934 5.74805 36.3809 11.5664C36.1758 12.4981 36.0938 14.2559 36.0938 17.6836V22.5H34.9453C34.3096 22.5 33.4072 22.5879 32.9355 22.7109C31.8076 22.9922 30.1055 24.4512 29.7773 25.418C29.4287 26.4551 29.4287 55.1074 29.7773 56.1445C30.1055 57.1113 31.8076 58.5703 32.9355 58.8516C33.5713 59.0098 38.4111 59.0625 52.541 59.0625C73.8281 59.0625 72.5361 59.1504 74.0947 57.6563C74.5869 57.1992 75.0996 56.4961 75.2227 56.1094C75.5713 55.125 75.5713 26.4375 75.2227 25.4531C75.0996 25.0664 74.5869 24.3633 74.0947 23.9063C73.0488 22.9219 71.8799 22.5 70.1162 22.5H68.9473L68.8652 17.0859C68.7627 11.4082 68.7422 11.1621 67.6758 8.75391C67.0811 7.38282 65.5225 5.39649 64.0664 4.14844C61.9541 2.32032 59.5137 1.14258 56.3965 0.404301C54.7969 0.0351601 51.0645 -0.0527306 49.4238 0.246098ZM55.1865 3.0586C59.1035 3.7793 62.5078 6.08204 64.292 9.22852C65.4199 11.25 65.625 12.5332 65.625 17.8418V22.5H63.9844H62.3438V17.7891C62.3438 14.1856 62.2822 12.8496 62.0361 12.0762C61.1133 9.03516 58.3857 6.67969 54.8584 5.88868C49.7109 4.7461 44.3379 7.54102 42.9639 12.0762C42.7178 12.8496 42.6563 14.1856 42.6563 17.7891V22.5H41.0156H39.375V17.7012C39.375 12.4277 39.5391 11.3906 40.5645 9.47461C43.1279 4.65821 49.2393 1.98633 55.1865 3.0586ZM55.5967 9.15821C56.9707 9.79102 57.5859 10.3535 58.4063 11.6719L58.96 12.5684L59.0215 17.5254L59.083 22.5H52.5H45.917L45.9785 17.5254C46.04 12.6563 46.04 12.5508 46.5527 11.6895C47.4141 10.1777 49.0752 9.01758 50.9619 8.59571C52.2334 8.29688 54.2637 8.56055 55.5967 9.15821ZM71.2236 25.5059C71.5107 25.6113 71.8389 25.8926 71.9619 26.1387C72.29 26.7363 72.29 54.8262 71.9619 55.4238C71.8389 55.6699 71.5107 55.9512 71.2236 56.0566C70.5264 56.3379 34.4736 56.3379 33.7764 56.0566C33.4893 55.9512 33.1611 55.6699 33.0381 55.4238C32.71 54.8262 32.71 26.7363 33.0381 26.1211C33.1611 25.8926 33.4688 25.6113 33.7148 25.5234C34.3506 25.2598 70.5469 25.2422 71.2236 25.5059Z" fill="#EE4D2D"/>
<path d="M50.5518 31.0957C47.0039 31.834 44.2969 34.8047 44.2969 37.9688C44.2969 39.8145 45.0557 41.3965 46.6758 42.8906L47.5371 43.6816L47.6191 45.7031C47.7012 47.918 47.8857 48.3926 49.0547 49.377C50.1621 50.3262 50.7979 50.5371 52.5 50.5371C54.2021 50.5371 54.8994 50.291 55.9658 49.377C57.0938 48.4102 57.2988 47.918 57.3809 45.7031L57.4629 43.6816L58.3242 42.8906C60.0879 41.3086 60.8262 39.6035 60.6416 37.5469C60.416 34.5586 58.3447 32.2559 55.002 31.3066C53.7305 30.9375 51.7822 30.8496 50.5518 31.0957ZM54.6738 34.2422C56.3965 34.998 57.3193 36.2988 57.2988 37.9688C57.2783 39.4102 56.9092 40.0605 55.3506 41.3262L54.1406 42.3105V44.543V46.793L53.5459 47.3027C53.2178 47.584 52.7461 47.8125 52.5 47.8125C52.2539 47.8125 51.7822 47.584 51.4541 47.3027L50.8594 46.793V44.543V42.293L49.5469 41.2207C48.4395 40.3066 48.1729 39.9727 47.8857 39.1113C47.4551 37.8457 47.7012 36.6152 48.6035 35.5254C50.0186 33.8555 52.5615 33.3105 54.6738 34.2422Z" fill="#EE4D2D"/>
<path d="M6.27539 62.0684C5.00391 62.332 3.1377 63.2637 2.23535 64.1074C1.78418 64.5293 1.10742 65.4082 0.758789 66.0586L0.102539 67.2363V75.9375V84.6387L0.758789 85.8164C1.66113 87.4512 2.80957 88.4707 4.67578 89.2617L6.23438 89.9121H52.5H98.7656L100.324 89.2617C102.19 88.4707 103.339 87.4512 104.241 85.8164L104.897 84.6387V75.9375V67.2363L104.241 66.0586C103.339 64.4238 102.19 63.4043 100.324 62.6133L98.7656 61.9629L52.9307 61.9277C25.7168 61.9277 6.74707 61.9805 6.27539 62.0684ZM98.9502 65.1621C99.9141 65.6016 100.693 66.2871 101.227 67.1484C101.596 67.7285 101.616 68.291 101.616 75.9375C101.616 83.584 101.596 84.1465 101.227 84.7266C100.693 85.5879 99.9141 86.2734 98.9502 86.7129L98.1299 87.0996L52.9102 87.1523C17.6572 87.1875 7.48535 87.1523 6.76758 86.9766C5.57812 86.6953 3.87598 85.2891 3.52734 84.2695C3.17871 83.25 3.17871 68.625 3.52734 67.6055C3.83496 66.709 5.55762 65.1973 6.5625 64.916C7.0752 64.7754 19.9746 64.7227 52.7051 64.7402L98.1299 64.7754L98.9502 65.1621Z" fill="#EE4D2D"/>
<path d="M17.001 67.834C16.5293 68.1504 16.5088 68.3086 16.4062 70.8047L16.3037 73.459L13.8428 72.2285C12.4893 71.5605 11.1768 71.0156 10.9102 71.0156C10.3359 71.0156 9.22852 71.9121 9.22852 72.3867C9.22852 73.002 10.0078 73.582 12.3047 74.7246C13.5352 75.3398 14.5605 75.8848 14.5605 75.9375C14.5605 75.9902 13.5352 76.5352 12.3047 77.1504C10.0078 78.293 9.22852 78.873 9.22852 79.4883C9.22852 79.9629 10.3359 80.8594 10.9102 80.8594C11.1768 80.8594 12.4893 80.3145 13.8428 79.6465L16.3037 78.416L16.4062 81.0703C16.5088 83.5664 16.5293 83.7246 17.001 84.041C17.6162 84.4629 18.4775 84.4629 19.0928 84.041C19.5645 83.7246 19.585 83.5664 19.6875 81.0703L19.79 78.416L22.251 79.6465C23.6045 80.3145 24.917 80.8594 25.1631 80.8594C25.8809 80.8594 26.7217 80.1211 26.7217 79.4883C26.7217 78.7148 26.291 78.3633 23.748 77.1328C22.5381 76.5352 21.5332 75.9902 21.5332 75.9375C21.5332 75.8848 22.5381 75.3398 23.748 74.7422C26.168 73.5645 26.5576 73.2832 26.7627 72.5625C26.8857 72.1758 26.7832 71.9824 26.291 71.543C25.9424 71.2617 25.4502 71.0156 25.1836 71.0156C24.917 71.0156 23.6045 71.5605 22.251 72.2285L19.79 73.459L19.6875 70.8047C19.585 68.3086 19.5645 68.1504 19.0928 67.834C18.8262 67.6582 18.3545 67.5 18.0469 67.5C17.7393 67.5 17.2676 67.6582 17.001 67.834Z" fill="#EE4D2D"/>
<path d="M39.9697 67.834C39.498 68.1504 39.4775 68.3086 39.375 70.8047L39.2725 73.459L36.8115 72.2285C35.458 71.5605 34.1455 71.0156 33.8789 71.0156C33.3047 71.0156 32.1973 71.9121 32.1973 72.3867C32.1973 73.002 32.9766 73.582 35.2734 74.7246C36.5039 75.3398 37.5293 75.8848 37.5293 75.9375C37.5293 75.9902 36.5039 76.5352 35.2734 77.1504C32.9766 78.293 32.1973 78.873 32.1973 79.4883C32.1973 79.9629 33.3047 80.8594 33.8789 80.8594C34.1455 80.8594 35.458 80.3145 36.8115 79.6465L39.2725 78.416L39.375 81.0703C39.4775 83.5664 39.498 83.7246 39.9697 84.041C40.585 84.4629 41.4463 84.4629 42.0615 84.041C42.5332 83.7246 42.5537 83.5664 42.6562 81.0703L42.7588 78.416L45.2197 79.6465C46.5732 80.3145 47.8857 80.8594 48.1318 80.8594C48.8496 80.8594 49.6904 80.1211 49.6904 79.4883C49.6904 78.7148 49.2598 78.3633 46.7168 77.1328C45.5068 76.5352 44.502 75.9902 44.502 75.9375C44.502 75.8848 45.5068 75.3398 46.7168 74.7422C49.1367 73.5645 49.5264 73.2832 49.7314 72.5625C49.8545 72.1758 49.752 71.9824 49.2598 71.543C48.9111 71.2617 48.4189 71.0156 48.1523 71.0156C47.8857 71.0156 46.5732 71.5605 45.2197 72.2285L42.7588 73.459L42.6562 70.8047C42.5537 68.3086 42.5332 68.1504 42.0615 67.834C41.7949 67.6582 41.3232 67.5 41.0156 67.5C40.708 67.5 40.2363 67.6582 39.9697 67.834Z" fill="#EE4D2D"/>
<path d="M62.9385 67.834C62.4668 68.1504 62.4463 68.3086 62.3437 70.8047L62.2412 73.459L59.7803 72.2285C58.4268 71.5605 57.1143 71.0156 56.8477 71.0156C56.2734 71.0156 55.166 71.9121 55.166 72.3867C55.166 73.002 55.9453 73.582 58.2422 74.7246C59.4727 75.3398 60.498 75.8848 60.498 75.9375C60.498 75.9902 59.4727 76.5352 58.2422 77.1504C55.9453 78.293 55.166 78.873 55.166 79.4883C55.166 79.9629 56.2734 80.8594 56.8477 80.8594C57.1143 80.8594 58.4268 80.3145 59.7803 79.6465L62.2412 78.416L62.3437 81.0703C62.4463 83.5664 62.4668 83.7246 62.9385 84.041C63.5537 84.4629 64.415 84.4629 65.0303 84.041C65.502 83.7246 65.5225 83.5664 65.625 81.0703L65.7275 78.416L68.1885 79.6465C69.542 80.3145 70.8545 80.8594 71.1006 80.8594C71.8184 80.8594 72.6592 80.1211 72.6592 79.4883C72.6592 78.7148 72.2285 78.3633 69.6855 77.1328C68.4756 76.5352 67.4707 75.9902 67.4707 75.9375C67.4707 75.8848 68.4756 75.3398 69.6855 74.7422C72.1055 73.5645 72.4951 73.2832 72.7002 72.5625C72.8232 72.1758 72.7207 71.9824 72.2285 71.543C71.8799 71.2617 71.3877 71.0156 71.1211 71.0156C70.8545 71.0156 69.542 71.5605 68.1885 72.2285L65.7275 73.459L65.625 70.8047C65.5225 68.3086 65.502 68.1504 65.0303 67.834C64.7637 67.6582 64.292 67.5 63.9844 67.5C63.6768 67.5 63.2051 67.6582 62.9385 67.834Z" fill="#EE4D2D"/>
<path d="M86.5225 67.834C86.0508 68.1504 86.0303 68.3086 85.9277 70.8047L85.8252 73.459L83.3643 72.2285C82.0107 71.5605 80.6982 71.0156 80.4316 71.0156C79.8574 71.0156 78.75 71.9121 78.75 72.3867C78.75 73.002 79.5293 73.582 81.8262 74.7246C83.0566 75.3398 84.082 75.8848 84.082 75.9375C84.082 75.9902 83.0566 76.5352 81.8262 77.1504C79.5293 78.293 78.75 78.873 78.75 79.4883C78.75 79.9629 79.8574 80.8594 80.4316 80.8594C80.6982 80.8594 82.0107 80.3145 83.3643 79.6465L85.8252 78.416L85.9277 81.0703C86.0303 83.5664 86.0508 83.7246 86.5225 84.041C87.1377 84.4629 87.999 84.4629 88.6143 84.041C89.0859 83.7246 89.1064 83.5664 89.209 81.0703L89.3115 78.416L91.7725 79.6465C93.126 80.3145 94.459 80.8594 94.7461 80.8594C95.3613 80.8594 96.0791 80.3496 96.2842 79.8047C96.5918 78.9961 96.0381 78.5039 93.4951 77.2383C92.1621 76.5703 91.0547 75.9902 91.0547 75.9375C91.0547 75.8848 92.0801 75.3223 93.3516 74.707C95.8535 73.459 96.5098 72.8965 96.3047 72.1758C96.1201 71.5605 95.4023 71.0156 94.7461 71.0156C94.459 71.0156 93.126 71.5605 91.7725 72.2285L89.3115 73.459L89.209 70.8047C89.1064 68.3086 89.0859 68.1504 88.6143 67.834C88.3477 67.6582 87.876 67.5 87.5684 67.5C87.2607 67.5 86.7891 67.6582 86.5225 67.834Z" fill="#EE4D2D"/>
</g>
<defs>
<clipPath id="clip0_150_1138">
<rect width="105" height="90" fill="white"/>
</clipPath>
</defs>
</svg>
