<svg width="36" height="34" viewBox="0 0 36 34" fill="none" xmlns="http://www.w3.org/2000/svg">
<path d="M11.6162 0.0651054C11.3039 0.177998 11.0068 0.463545 10.923 0.735809C10.7707 1.23386 11.0906 1.71198 11.7686 2.01745C11.898 2.07722 11.9971 2.14362 11.9971 2.17682C11.9971 2.20339 11.7 2.32292 11.3344 2.44909C8.76738 3.29245 6.07852 4.96589 4.27324 6.82526C2.01855 9.16276 0.67793 11.746 0.137109 14.8007C-0.0457031 15.8565 -0.0457031 18.1276 0.137109 19.1835C1.14258 24.8811 5.30918 29.4632 11.3877 31.5616C12.4236 31.9135 14.1147 32.3186 14.8154 32.3717C15.2496 32.4049 15.341 32.3917 15.5695 32.2522C15.9732 32.0132 16.1332 31.7807 16.1332 31.4487C16.1332 31.1167 15.9428 30.7846 15.6533 30.5987C15.5467 30.5323 15.1049 30.4194 14.6631 30.3397C11.4105 29.7553 8.27988 28.1549 6.09375 25.937C4.14375 23.9647 2.94785 21.7401 2.42227 19.0839C2.23945 18.1542 2.23945 15.83 2.42227 14.9003C3.23731 10.7964 5.85762 7.39636 9.80332 5.31784C10.7402 4.82644 12.7588 4.00964 12.6674 4.16237C12.2408 4.86628 12.1342 5.1319 12.1799 5.35769C12.3018 6.04167 13.1168 6.4069 13.8176 6.08815C14.1299 5.9487 14.2213 5.84245 14.9068 4.77331C16.0494 3.01354 16.1332 2.85417 16.1256 2.52878C16.118 2.03073 15.9352 1.88464 14.107 0.921747C12.3703 0.00534058 12.0656 -0.10091 11.6162 0.0651054Z" fill="#EE4D2D"/>
<path d="M20.1475 1.72515C19.8199 1.90444 19.7133 2.01733 19.6143 2.31616C19.5153 2.62163 19.6295 2.98686 19.9037 3.25249C20.0865 3.43179 20.2389 3.47827 21.0692 3.64429C25.5633 4.52749 29.1281 6.79858 31.4057 10.2185C32.2664 11.5068 32.9215 13.1005 33.2643 14.7341C33.5004 15.8365 33.5004 18.1474 33.2643 19.2498C32.4188 23.274 29.8137 26.6208 25.9213 28.6662C24.9844 29.1576 22.9735 29.9744 23.0572 29.8283C23.5447 28.9783 23.5905 28.8587 23.5447 28.6263C23.4229 27.9423 22.6078 27.5771 21.9071 27.8958C21.5947 28.0353 21.5033 28.1416 20.8178 29.2107C19.6752 30.9705 19.5914 31.1298 19.599 31.4552C19.6067 31.9466 19.7895 32.0927 21.6252 33.0623C23.2096 33.9056 23.3315 33.9587 23.7047 33.9587C24.3598 33.9587 24.8244 33.5603 24.8244 32.9958C24.8244 32.5908 24.6721 32.3916 24.1237 32.0662C23.9104 31.94 23.7352 31.8205 23.7276 31.8005C23.7276 31.7806 23.9408 31.6943 24.2074 31.608C25.0225 31.3357 26.4774 30.7115 27.2315 30.3064C30.6592 28.4537 33.2186 25.7244 34.643 22.4041C36.4864 18.1208 36.0065 13.1869 33.3633 9.18921C30.8192 5.34429 26.424 2.56186 21.5033 1.69194C20.7264 1.55249 20.4674 1.55913 20.1475 1.72515Z" fill="#EE4D2D"/>
<path d="M16.4912 7.42275C14.2975 7.82783 12.5074 9.05635 11.54 10.8228C11.0982 11.6329 10.9307 12.277 10.8773 13.3595L10.8316 14.2759L10.6184 14.3755C10.2375 14.5415 9.65098 15.1192 9.39199 15.5774L9.14062 16.029V19.8474V23.6657L9.31582 24.0509C9.5291 24.4958 10.1689 25.1333 10.6641 25.3856C11.4029 25.7642 11.3496 25.7642 18.0604 25.7442L24.2227 25.7243L24.6645 25.5716C25.1672 25.3923 25.9061 24.8345 26.1879 24.4095C26.6221 23.7587 26.6297 23.7122 26.6068 19.7079C26.584 16.0356 26.584 16.029 26.4088 15.697C26.1498 15.2056 25.6852 14.7075 25.2662 14.4685L24.893 14.2626L24.8473 13.3528C24.7939 12.277 24.6264 11.6329 24.1846 10.8228C22.783 8.26611 19.5838 6.8583 16.4912 7.42275ZM18.9592 9.42158C21.1225 9.89971 22.5773 11.5466 22.585 13.5188V14.0036H17.8623H13.1396V13.5188C13.1473 11.6395 14.4955 10.0259 16.5293 9.46807C17.3139 9.25557 18.1365 9.23564 18.9592 9.42158ZM18.3803 18.3134C18.5479 18.3864 18.7307 18.5458 18.8373 18.7118C19.0049 18.9708 19.0125 19.0438 18.9896 19.9403C18.9668 20.7837 18.9516 20.9231 18.8068 21.0825C18.525 21.4145 18.2584 21.5407 17.8623 21.5407C17.4662 21.5407 17.1996 21.4145 16.9178 21.0825C16.7807 20.9231 16.7578 20.7837 16.735 19.9669C16.7045 18.8513 16.7883 18.6122 17.2834 18.3532C17.6566 18.154 17.9994 18.1407 18.3803 18.3134Z" fill="#EE4D2D"/>
</svg>
